<?xml version="1.0" encoding="iso-8859-1"?>
<!-- Generator: Adobe Illustrator 19.0.0, SVG Export Plug-In . SVG Version: 6.00 Build 0)  -->
<svg version="1.1" id="Capa_1" xmlns="http://www.w3.org/2000/svg" xmlns:xlink="http://www.w3.org/1999/xlink" x="0px" y="0px"
	 viewBox="0 0 512.017 512.017" style="enable-background:new 0 0 512.017 512.017;" xml:space="preserve">
<g>
	<g>
		<path d="M510.242,8.68c-2.752-5.344-8.224-8.672-14.24-8.672h-160c-5.184,0-10.016,2.496-13.024,6.688l-66.976,93.76
			l-66.976-93.76c-3.008-4.192-7.84-6.688-13.024-6.688h-160c-5.984,0-11.488,3.328-14.24,8.672
			c-2.72,5.312-2.272,11.744,1.216,16.64l147.968,206.976c-33.408,29.344-54.944,71.872-54.944,119.712c0,88.224,71.776,160,160,160
			s160-71.776,160-160c0-47.84-21.536-90.368-54.944-119.712L509.026,25.32C512.514,20.456,512.994,13.992,510.242,8.68z
			 M47.106,32.008h120.672l68.544,95.968l-60.288,84.384L47.106,32.008z M384.002,352.008c0,70.592-57.408,128-128,128
			s-128-57.408-128-128s57.408-128,128-128S384.002,281.416,384.002,352.008z M334.978,213.704
			c-23.392-13.408-50.112-21.696-78.976-21.696c-9.696,0-19.072,1.216-28.288,2.848l41.6-58.112
			c0.128-0.192,0.288-0.384,0.416-0.576l74.496-104.16h120.672L334.978,213.704z"/>
	</g>
</g>
<g>
	<g>
		<path d="M272.002,272.008h-32c-8.832,0-16,7.168-16,16c0,8.832,7.168,16,16,16h16v112c0,8.832,7.168,16,16,16
			c8.832,0,16-7.168,16-16v-128C288.002,279.176,280.834,272.008,272.002,272.008z"/>
	</g>
</g>
<g>
</g>
<g>
</g>
<g>
</g>
<g>
</g>
<g>
</g>
<g>
</g>
<g>
</g>
<g>
</g>
<g>
</g>
<g>
</g>
<g>
</g>
<g>
</g>
<g>
</g>
<g>
</g>
<g>
</g>
</svg>
