<svg height="512" viewBox="0 0 96 96" width="512" xmlns="http://www.w3.org/2000/svg"><g id="_06-score" data-name="06-score"><path d="m88 16h-80a8.009 8.009 0 0 0 -8 8v48a8.009 8.009 0 0 0 8 8h80a8.009 8.009 0 0 0 8-8v-48a8.009 8.009 0 0 0 -8-8zm-80 8h36v48h-36zm44 48v-48h36v48z"/><path d="m24 28a12.013 12.013 0 0 0 -12 12v16a12 12 0 0 0 24 0v-16a12.013 12.013 0 0 0 -12-12zm4 28a4 4 0 0 1 -8 0v-16a4 4 0 0 1 8 0z"/><path d="m72 28a12.013 12.013 0 0 0 -12 12v16a12 12 0 0 0 24 0v-16a12.013 12.013 0 0 0 -12-12zm4 28a4 4 0 0 1 -8 0v-16a4 4 0 0 1 8 0z"/></g></svg>